<svg width="160" height="160" viewBox="0 0 160 160" fill="none" xmlns="http://www.w3.org/2000/svg"><g clip-path="url(#clip0_402_3488)"><path fill-rule="evenodd" clip-rule="evenodd" d="M91.3011 52.2864L113.186 39.1196H124.517V107.789H144.493V121.996H86.6714V107.789H108.415V57.5898L91.3011 67.441V52.2864Z" fill="white"/><path d="M49.4386 60.6211C49.4386 63.3489 47.2228 65.5604 44.4897 65.5604C41.7562 65.5604 39.5408 63.3489 39.5408 60.6211C39.5408 57.8933 41.7562 55.6818 44.4897 55.6818C47.2228 55.6818 49.4386 57.8933 49.4386 60.6211Z" fill="#FFC300"/><path d="M34.7335 65.9337C34.7335 68.6615 32.5176 70.873 29.7846 70.873C27.0515 70.873 24.8357 68.6615 24.8357 65.9337C24.8357 63.2059 27.0515 60.9948 29.7846 60.9948C32.5176 60.9948 34.7335 63.2059 34.7335 65.9337Z" fill="#FFC300"/><path d="M59.195 70.873C61.9281 70.873 64.1439 68.6615 64.1439 65.9337C64.1439 63.2059 61.9281 60.9948 59.195 60.9948C56.4619 60.9948 54.2461 63.2059 54.2461 65.9337C54.2461 68.6615 56.4619 70.873 59.195 70.873Z" fill="#FFC300"/><path d="M69.2669 94.955C69.2669 97.6828 67.0515 99.8943 64.3185 99.8943C61.5849 99.8943 59.3696 97.6828 59.3696 94.955C59.3696 92.2272 61.5849 90.0161 64.3185 90.0161C67.0515 90.0161 69.2669 92.2272 69.2669 94.955Z" fill="#FFC300"/><path d="M24.661 99.8943C27.3945 99.8943 29.6099 97.6828 29.6099 94.955C29.6099 92.2272 27.3945 90.0161 24.661 90.0161C21.9279 90.0161 19.7121 92.2272 19.7121 94.955C19.7121 97.6828 21.9279 99.8943 24.661 99.8943Z" fill="#FFC300"/><path d="M26.8817 79.4813C26.8817 82.2096 24.6663 84.4211 21.9332 84.4211C19.1997 84.4211 16.9839 82.2096 16.9839 79.4813C16.9839 76.7535 19.1997 74.5425 21.9332 74.5425C24.6663 74.5425 26.8817 76.7535 26.8817 79.4813Z" fill="#FFC300"/><path d="M66.98 84.4211C69.713 84.4211 71.9289 82.2096 71.9289 79.4813C71.9289 76.7535 69.713 74.5425 66.98 74.5425C64.2464 74.5425 62.0311 76.7535 62.0311 79.4813C62.0311 82.2096 64.2464 84.4211 66.98 84.4211Z" fill="#FFC300"/><path d="M41.6533 105.116C41.6533 107.844 39.4379 110.055 36.7048 110.055C33.9713 110.055 31.7559 107.844 31.7559 105.116C31.7559 102.388 33.9713 100.177 36.7048 100.177C39.4379 100.177 41.6533 102.388 41.6533 105.116Z" fill="#FFC300"/><path d="M52.3415 110.055C55.0745 110.055 57.2903 107.844 57.2903 105.116C57.2903 102.388 55.0745 100.177 52.3415 100.177C49.6079 100.177 47.3921 102.388 47.3921 105.116C47.3921 107.844 49.6079 110.055 52.3415 110.055Z" fill="#FFC300"/></g><defs><clipPath id="clip0_402_3488"><rect width="160" height="160" fill="white"/></clipPath></defs></svg>